<?xml version="1.0"?>
<svg data-v-decfdd8a="" version="1.0" xmlns="http://www.w3.org/2000/svg" width="100%" height="100%"
     viewBox="0 0 340.000000 250.000000" preserveAspectRatio="xMidYMid meet" color-interpolation-filters="sRGB"
     style="margin: auto;">
  <rect data-v-decfdd8a="" x="0" y="0" width="100%" height="100%" fill="#fff" fill-opacity="0" class="background"></rect>
  <g data-v-decfdd8a="" fill="#006bcb" class="icon-text-wrapper icon-svg-group iconsvg" transform="translate(81.25,58.73870086669922)">
    <g class="iconsvg-imagesvg" transform="matrix(1,0,0,1,58.75,0)" opacity="1">
      <g>
        <rect fill="#006bcb" fill-opacity="0" stroke-width="2" x="0" y="0" width="60" height="65.56660474265108" class="image-rect"></rect>
        <svg x="0" y="0" width="60" height="65.56660474265108" filtersec="colorsb4432383154" class="image-svg-svg primary" style="overflow: visible;">
          <svg xmlns="http://www.w3.org/2000/svg" viewBox="0 0 241.22000122070312 263.6000061035156">
            <g>
              <g>
                <path fill="#00aeff" d="M119.36 218.75l30.68 44.85H88.69l-30.67-44.85h61.34z"></path>
                <path fill="#006bcb" d="M61.35 133.76L152.82 0H91.47L0 133.76h61.35z"></path>
                <path fill="#00aeff" d="M105.72 198.64H44.37L0 133.76h61.35l44.37 64.88z"></path>
                <path fill="#006bcb" d="M179.88 130.26L88.69 263.6h61.35l91.18-133.34h-61.34zM105.72 198.64l91.13-133.27-61.34.01-91.14 133.26h61.35z"></path>
                <path fill="#00aeff" d="M241.22 130.26h-61.34L135.5 65.37h61.35l44.37 64.89zM152.82 0l30.67 44.85h-61.35L91.47 0h61.35z"></path>
              </g>
            </g>
          </svg>
        </svg>
      </g>
    </g>
  </g>
</svg>
