<?xml version="1.0"?>
<svg data-v-decfdd8a="" version="1.0" xmlns="http://www.w3.org/2000/svg" xmlns:xlink="http://www.w3.org/1999/xlink" width="100%" height="100%" viewBox="0 0 340.000000 250.000000" preserveAspectRatio="xMidYMid meet" color-interpolation-filters="sRGB" style="margin: auto;">
  <rect data-v-decfdd8a="" x="0" y="0" width="100%" height="100%" fill="#fff" fill-opacity="0" class="background"></rect>
  <g data-v-decfdd8a="" fill="#006bcb" class="icon-text-wrapper icon-svg-group iconsvg" transform="translate(81.25,58.73870086669922)">
    <g class="iconsvg-imagesvg" transform="matrix(1,0,0,1,58.75,0)" opacity="1">
      <g>
        <rect fill="#006bcb" fill-opacity="0" stroke-width="2" x="0" y="0" width="60" height="65.56660474265108" class="image-rect"></rect>
        <svg x="0" y="0" width="60" height="65.56660474265108" filtersec="colorsb4432383154" class="image-svg-svg primary" style="overflow: visible;">
          <svg xmlns="http://www.w3.org/2000/svg" viewBox="0 0 241.22000122070312 263.6000061035156">
            <g>
              <g>
                <path fill="#00aeff" d="M119.36 218.75l30.68 44.85H88.69l-30.67-44.85h61.34z"></path>
                <path fill="#006bcb" d="M61.35 133.76L152.82 0H91.47L0 133.76h61.35z"></path>
                <path fill="#00aeff" d="M105.72 198.64H44.37L0 133.76h61.35l44.37 64.88z"></path>
                <path fill="#006bcb" d="M179.88 130.26L88.69 263.6h61.35l91.18-133.34h-61.34zM105.72 198.64l91.13-133.27-61.34.01-91.14 133.26h61.35z"></path>
                <path fill="#00aeff" d="M241.22 130.26h-61.34L135.5 65.37h61.35l44.37 64.89zM152.82 0l30.67 44.85h-61.35L91.47 0h61.35z"></path>
              </g>
            </g>
          </svg>
        </svg>
      </g>
    </g>
    <g transform="translate(0,72.56660461425781)">
      <g data-gra="path-name" fill-rule="" class="tp-name iconsvg-namesvg" transform="matrix(1,0,0,1,0,0)" opacity="1">
        <g transform="scale(1)">
          <g>
            <path d="M26.4-10L26.4-10Q26.4-7.55 25.6-5.58 24.8-3.6 23.33-2.23 21.85-0.85 19.75-0.1 17.65 0.65 15.05 0.65L15.05 0.65Q10.9 0.65 7.65-0.68 4.4-2 2.3-3.7L2.3-3.7 6.45-7.85Q8.1-6.35 10.15-5.55L10.15-5.55Q11.4-5.05 12.5-4.9 13.6-4.75 14.3-4.75L14.3-4.75Q15.6-4.75 16.68-5.08 17.75-5.4 18.55-5.95L18.55-5.95Q20.25-7.2 20.25-9.25L20.25-9.25Q20.25-10.5 19.35-11.5L19.35-11.5Q18.65-12.3 17.55-12.8L17.55-12.8Q16.65-13.3 15.65-13.6 14.65-13.9 13.85-14.15L13.85-14.15Q13.6-14.25 13.4-14.28 13.2-14.3 13.05-14.4L13.05-14.4Q12.95-14.4 12.75-14.5L12.75-14.5Q11.7-14.8 9.73-15.55 7.75-16.3 5.8-17.6L5.8-17.6Q1.25-20.65 1.25-25.1L1.25-25.1Q1.25-28.05 2.27-30.08 3.3-32.1 4.95-33.38 6.6-34.65 8.63-35.2 10.65-35.75 12.6-35.75L12.6-35.75Q16.2-35.75 18.65-34.9 21.1-34.05 22.55-33.2L22.55-33.2Q23.3-32.75 23.83-32.33 24.35-31.9 24.75-31.55L24.75-31.55 20.5-27.25Q19.15-28.6 17.75-29.3L17.75-29.3Q15.65-30.3 13.35-30.3L13.35-30.3Q12.35-30.3 11.35-30.05 10.35-29.8 9.6-29.4L9.6-29.4Q7.4-28.05 7.4-25.85L7.4-25.85Q7.4-24.5 8.3-23.55L8.3-23.55Q8.95-22.8 10.1-22.2L10.1-22.2Q11.05-21.7 12.1-21.4 13.15-21.1 14.05-20.85L14.05-20.85 14.65-20.7Q14.9-20.6 15.6-20.4 16.3-20.2 17.25-19.8 18.2-19.4 19.33-18.85 20.45-18.3 21.55-17.55L21.55-17.55Q26.4-14.35 26.4-10ZM52.15-25L52.15-25 39.65-12.5 52.15 0 43.7 0 35.4-8.3 35.4 0 29.4 0 29.4-35 35.4-35 35.4-16.75 43.65-25 52.15-25ZM71.15-25L77.75-25 66.15 0 64.6 3.4Q63.2 6.45 60.4 8.25 57.6 10.05 54.2 10.05L54.2 10.05 51.55 10.05 53.05 4.05 54.5 4.05Q55.95 4.05 57.2 3.25 58.45 2.45 59.05 1.1L59.05 1.1 59.55 0 47.95-25 54.55-25 62.85-7.1 71.15-25ZM98.9-35L98.9-35 98.9-29 88.65-29 88.65 0 82.65 0 82.65-29 72.35-29 72.35-35 82.65-35 88.65-35 98.9-35ZM106.6-19.7L106.6-19.7Q103.6-19.7 101.5-17.6L101.5-17.6Q99.4-15.5 99.4-12.5L99.4-12.5Q99.4-9.55 101.5-7.45L101.5-7.45Q102.5-6.4 103.82-5.88 105.15-5.35 106.6-5.35L106.6-5.35Q108.05-5.35 109.35-5.88 110.65-6.4 111.7-7.45L111.7-7.45Q113.8-9.55 113.8-12.5L113.8-12.5Q113.8-15.5 111.7-17.6L111.7-17.6Q109.5-19.7 106.6-19.7ZM106.6-25.7L106.6-25.7Q109.35-25.7 111.75-24.68 114.15-23.65 115.95-21.85 117.75-20.05 118.77-17.65 119.8-15.25 119.8-12.5L119.8-12.5Q119.8-9.8 118.77-7.4 117.75-5 115.95-3.2 114.15-1.4 111.75-0.38 109.35 0.65 106.6 0.65L106.6 0.65Q103.85 0.65 101.45-0.38 99.05-1.4 97.25-3.2 95.45-5 94.42-7.4 93.4-9.8 93.4-12.5L93.4-12.5Q93.4-15.25 94.42-17.65 95.45-20.05 97.25-21.85 99.05-23.65 101.45-24.68 103.85-25.7 106.6-25.7ZM135-19.7L135-19.7Q132-19.7 129.9-17.6L129.9-17.6Q127.8-15.5 127.8-12.5L127.8-12.5Q127.8-9.55 129.9-7.45L129.9-7.45Q130.9-6.4 132.22-5.88 133.55-5.35 135-5.35L135-5.35Q136.45-5.35 137.75-5.88 139.05-6.4 140.1-7.45L140.1-7.45Q142.2-9.55 142.2-12.5L142.2-12.5Q142.2-15.5 140.1-17.6L140.1-17.6Q137.9-19.7 135-19.7ZM135-25.7L135-25.7Q137.75-25.7 140.15-24.68 142.55-23.65 144.35-21.85 146.15-20.05 147.18-17.65 148.2-15.25 148.2-12.5L148.2-12.5Q148.2-9.8 147.18-7.4 146.15-5 144.35-3.2 142.55-1.4 140.15-0.38 137.75 0.65 135 0.65L135 0.65Q132.25 0.65 129.85-0.38 127.45-1.4 125.65-3.2 123.85-5 122.83-7.4 121.8-9.8 121.8-12.5L121.8-12.5Q121.8-15.25 122.83-17.65 123.85-20.05 125.65-21.85 127.45-23.65 129.85-24.68 132.25-25.7 135-25.7ZM156.95 0L156.95 0 150.95 0 150.95-35 156.95-35 156.95 0ZM170.2-15.5L170.2-15.5Q170.8-15.35 172.2-14.8 173.6-14.25 175.07-13.28 176.55-12.3 177.65-10.85 178.75-9.4 178.75-7.4L178.75-7.4Q178.75-5.65 178.17-4.2 177.6-2.75 176.5-1.65 175.4-0.55 173.8 0.05 172.2 0.65 170.2 0.65L170.2 0.65Q167.15 0.65 164.52-0.45 161.9-1.55 160.3-3.15L160.3-3.15 164.45-7.3Q165.75-5.75 167.22-5.3 168.7-4.85 169.7-4.85L169.7-4.85Q171.25-4.85 172-5.45 172.75-6.05 172.75-6.9L172.75-6.9Q172.75-7.5 172.25-7.95 171.75-8.4 171.07-8.7 170.4-9 169.7-9.18 169-9.35 168.55-9.5L168.55-9.5Q167.95-9.7 166.52-10.2 165.1-10.7 163.63-11.65 162.15-12.6 161.05-14.05 159.95-15.5 159.95-17.55L159.95-17.55Q159.95-19.65 160.67-21.18 161.4-22.7 162.6-23.7 163.8-24.7 165.35-25.18 166.9-25.65 168.55-25.65L168.55-25.65Q171.1-25.65 172.88-25.05 174.65-24.45 175.8-23.75L175.8-23.75Q177.1-22.9 178-21.85L178-21.85 173.8-17.65Q172.8-18.95 171.6-19.55 170.4-20.15 169.05-20.15L169.05-20.15Q168-20.15 166.97-19.65 165.95-19.15 165.95-18.05L165.95-18.05Q165.95-17.45 166.4-17.03 166.85-16.6 167.5-16.32 168.15-16.05 168.88-15.85 169.6-15.65 170.2-15.5Z" transform="translate(-1.25, 35.75)"></path>
          </g>
        </svg>
      </g>
    </g>
  </g>
</svg>
