<?xml version="1.0"?>
<svg data-v-decfdd8a="" version="1.0" xmlns="http://www.w3.org/2000/svg" xmlns:xlink="http://www.w3.org/1999/xlink" width="100%" height="100%" viewBox="0 0 340.000000 250.000000" preserveAspectRatio="xMidYMid meet" color-interpolation-filters="sRGB" style="margin: auto;"> <rect data-v-decfdd8a="" x="0" y="0" width="100%" height="100%" fill="#fff" fill-opacity="0" class="background"></rect>  <g data-v-decfdd8a="" fill="#006bcb" class="icon-text-wrapper icon-svg-group iconsvg" transform="translate(81.25,58.73870086669922)"><g class="iconsvg-imagesvg" transform="matrix(1,0,0,1,58.75,0)" opacity="1"><g><rect fill="#006bcb" fill-opacity="0" stroke-width="2" x="0" y="0" width="60" height="65.56660474265108" class="image-rect"></rect> <svg x="0" y="0" width="60" height="65.56660474265108" filtersec="colorsb4432383154" class="image-svg-svg primary" style="overflow: visible;"><svg xmlns="http://www.w3.org/2000/svg" viewBox="0 0 241.22000122070312 263.6000061035156"><g><g><path fill="#00aeff" d="M119.36 218.75l30.68 44.85H88.69l-30.67-44.85h61.34z"></path><path fill="#006bcb" d="M61.35 133.76L152.82 0H91.47L0 133.76h61.35z"></path><path fill="#00aeff" d="M105.72 198.64H44.37L0 133.76h61.35l44.37 64.88z"></path><path fill="#006bcb" d="M179.88 130.26L88.69 263.6h61.35l91.18-133.34h-61.34zM105.72 198.64l91.13-133.27-61.34.01-91.14 133.26h61.35z"></path><path fill="#00aeff" d="M241.22 130.26h-61.34L135.5 65.37h61.35l44.37 64.89zM152.82 0l30.67 44.85h-61.35L91.47 0h61.35z"></path></g></g></svg></svg> <!----></g></g> <g transform="translate(0,72.56660461425781)"><g data-gra="path-name" fill-rule="" class="tp-name iconsvg-namesvg" transform="matrix(1,0,0,1,0,0)" opacity="1"><g transform="scale(1)"><g><path d="M26.4-10L26.4-10Q26.4-7.55 25.6-5.58 24.8-3.6 23.33-2.23 21.85-0.85 19.75-0.1 17.65 0.65 15.05 0.65L15.05 0.65Q10.9 0.65 7.65-0.68 4.4-2 2.3-3.7L2.3-3.7 6.45-7.85Q8.1-6.35 10.15-5.55L10.15-5.55Q11.4-5.05 12.5-4.9 13.6-4.75 14.3-4.75L14.3-4.75Q15.6-4.75 16.68-5.08 17.75-5.4 18.55-5.95L18.55-5.95Q20.25-7.2 20.25-9.25L20.25-9.25Q20.25-10.5 19.35-11.5L19.35-11.5Q18.65-12.3 17.55-12.8L17.55-12.8Q16.65-13.3 15.65-13.6 14.65-13.9 13.85-14.15L13.85-14.15Q13.6-14.25 13.4-14.28 13.2-14.3 13.05-14.4L13.05-14.4Q12.95-14.4 12.75-14.5L12.75-14.5Q11.7-14.8 9.73-15.55 7.75-16.3 5.8-17.6L5.8-17.6Q1.25-20.65 1.25-25.1L1.25-25.1Q1.25-28.05 2.27-30.08 3.3-32.1 4.95-33.38 6.6-34.65 8.63-35.2 10.65-35.75 12.6-35.75L12.6-35.75Q16.2-35.75 18.65-34.9 21.1-34.05 22.55-33.2L22.55-33.2Q23.3-32.75 23.83-32.33 24.35-31.9 24.75-31.55L24.75-31.55 20.5-27.25Q19.15-28.6 17.75-29.3L17.75-29.3Q15.65-30.3 13.35-30.3L13.35-30.3Q12.35-30.3 11.35-30.05 10.35-29.8 9.6-29.4L9.6-29.4Q7.4-28.05 7.4-25.85L7.4-25.85Q7.4-24.5 8.3-23.55L8.3-23.55Q8.95-22.8 10.1-22.2L10.1-22.2Q11.05-21.7 12.1-21.4 13.15-21.1 14.05-20.85L14.05-20.85 14.65-20.7Q14.9-20.6 15.6-20.4 16.3-20.2 17.25-19.8 18.2-19.4 19.33-18.85 20.45-18.3 21.55-17.55L21.55-17.55Q26.4-14.35 26.4-10ZM52.15-25L52.15-25 39.65-12.5 52.15 0 43.7 0 35.4-8.3 35.4 0 29.4 0 29.4-35 35.4-35 35.4-16.75 43.65-25 52.15-25ZM71.15-25L77.75-25 66.15 0 64.6 3.4Q63.2 6.45 60.4 8.25 57.6 10.05 54.2 10.05L54.2 10.05 51.55 10.05 53.05 4.05 54.5 4.05Q55.95 4.05 57.2 3.25 58.45 2.45 59.05 1.1L59.05 1.1 59.55 0 47.95-25 54.55-25 62.85-7.1 71.15-25ZM98.9-35L98.9-35 98.9-29 88.65-29 88.65 0 82.65 0 82.65-29 72.35-29 72.35-35 82.65-35 88.65-35 98.9-35ZM106.6-19.7L106.6-19.7Q103.6-19.7 101.5-17.6L101.5-17.6Q99.4-15.5 99.4-12.5L99.4-12.5Q99.4-9.55 101.5-7.45L101.5-7.45Q102.5-6.4 103.82-5.88 105.15-5.35 106.6-5.35L106.6-5.35Q108.05-5.35 109.35-5.88 110.65-6.4 111.7-7.45L111.7-7.45Q113.8-9.55 113.8-12.5L113.8-12.5Q113.8-15.5 111.7-17.6L111.7-17.6Q109.5-19.7 106.6-19.7ZM106.6-25.7L106.6-25.7Q109.35-25.7 111.75-24.68 114.15-23.65 115.95-21.85 117.75-20.05 118.77-17.65 119.8-15.25 119.8-12.5L119.8-12.5Q119.8-9.8 118.77-7.4 117.75-5 115.95-3.2 114.15-1.4 111.75-0.38 109.35 0.65 106.6 0.65L106.6 0.65Q103.85 0.65 101.45-0.38 99.05-1.4 97.25-3.2 95.45-5 94.42-7.4 93.4-9.8 93.4-12.5L93.4-12.5Q93.4-15.25 94.42-17.65 95.45-20.05 97.25-21.85 99.05-23.65 101.45-24.68 103.85-25.7 106.6-25.7ZM135-19.7L135-19.7Q132-19.7 129.9-17.6L129.9-17.6Q127.8-15.5 127.8-12.5L127.8-12.5Q127.8-9.55 129.9-7.45L129.9-7.45Q130.9-6.4 132.22-5.88 133.55-5.35 135-5.35L135-5.35Q136.45-5.35 137.75-5.88 139.05-6.4 140.1-7.45L140.1-7.45Q142.2-9.55 142.2-12.5L142.2-12.5Q142.2-15.5 140.1-17.6L140.1-17.6Q137.9-19.7 135-19.7ZM135-25.7L135-25.7Q137.75-25.7 140.15-24.68 142.55-23.65 144.35-21.85 146.15-20.05 147.18-17.65 148.2-15.25 148.2-12.5L148.2-12.5Q148.2-9.8 147.18-7.4 146.15-5 144.35-3.2 142.55-1.4 140.15-0.38 137.75 0.65 135 0.65L135 0.65Q132.25 0.65 129.85-0.38 127.45-1.4 125.65-3.2 123.85-5 122.83-7.4 121.8-9.8 121.8-12.5L121.8-12.5Q121.8-15.25 122.83-17.65 123.85-20.05 125.65-21.85 127.45-23.65 129.85-24.68 132.25-25.7 135-25.7ZM156.95 0L156.95 0 150.95 0 150.95-35 156.95-35 156.95 0ZM170.2-15.5L170.2-15.5Q170.8-15.35 172.2-14.8 173.6-14.25 175.07-13.28 176.55-12.3 177.65-10.85 178.75-9.4 178.75-7.4L178.75-7.4Q178.75-5.65 178.17-4.2 177.6-2.75 176.5-1.65 175.4-0.55 173.8 0.05 172.2 0.65 170.2 0.65L170.2 0.65Q167.15 0.65 164.52-0.45 161.9-1.55 160.3-3.15L160.3-3.15 164.45-7.3Q165.75-5.75 167.22-5.3 168.7-4.85 169.7-4.85L169.7-4.85Q171.25-4.85 172-5.45 172.75-6.05 172.75-6.9L172.75-6.9Q172.75-7.5 172.25-7.95 171.75-8.4 171.07-8.7 170.4-9 169.7-9.18 169-9.35 168.55-9.5L168.55-9.5Q167.95-9.7 166.52-10.2 165.1-10.7 163.63-11.65 162.15-12.6 161.05-14.05 159.95-15.5 159.95-17.55L159.95-17.55Q159.95-19.65 160.67-21.18 161.4-22.7 162.6-23.7 163.8-24.7 165.35-25.18 166.9-25.65 168.55-25.65L168.55-25.65Q171.1-25.65 172.88-25.05 174.65-24.45 175.8-23.75L175.8-23.75Q177.1-22.9 178-21.85L178-21.85 173.8-17.65Q172.8-18.95 171.6-19.55 170.4-20.15 169.05-20.15L169.05-20.15Q168-20.15 166.97-19.65 165.95-19.15 165.95-18.05L165.95-18.05Q165.95-17.45 166.4-17.03 166.85-16.6 167.5-16.32 168.15-16.05 168.88-15.85 169.6-15.65 170.2-15.5Z" transform="translate(-1.25, 35.75)"></path></g> <!----> <!----> <!----> <!----> <!----> <!----> <!----></g></g> <g data-gra="path-slogan" fill-rule="" class="tp-slogan iconsvg-slogansvg" fill="#006bcb" transform="matrix(1,0,0,1,36.66999816894531,51.79999923706055)" opacity="0.7602068070439062"><!----> <!----> <g transform="scale(1, 1)"><g transform="scale(1)"><path d="M2.71-7.03L2.71 0L3.72 0L3.72-7.03L6.10-7.03L6.10-7.87L0.34-7.87L0.34-7.03ZM7.51-7.87L7.51 0L8.51 0L8.51-3.71L12.17-3.71L12.17 0L13.18 0L13.18-7.87L12.17-7.87L12.17-4.57L8.51-4.57L8.51-7.87ZM15.34-7.87L15.34 0L19.99 0L19.99-0.85L16.33-0.85L16.33-3.71L19.32-3.71L19.32-4.56L16.33-4.56L16.33-7.03L19.87-7.03L19.87-7.87ZM24.08-7.87L24.08 0L26.59 0C27.03 0 27.44-0.05 27.80-0.14C28.17-0.24 28.49-0.38 28.75-0.58C29.02-0.77 29.22-1.01 29.36-1.30C29.51-1.58 29.58-1.92 29.58-2.30C29.58-2.85 29.42-3.28 29.10-3.59C28.78-3.90 28.33-4.10 27.76-4.19L27.76-4.24C28.22-4.36 28.56-4.57 28.79-4.89C29.01-5.21 29.12-5.56 29.12-5.95C29.12-6.30 29.06-6.59 28.93-6.83C28.79-7.08 28.61-7.28 28.37-7.43C28.14-7.58 27.85-7.69 27.52-7.76C27.19-7.84 26.82-7.87 26.42-7.87ZM26.24-4.51L25.08-4.51L25.08-7.08L26.29-7.08C26.91-7.08 27.37-6.99 27.68-6.80C27.99-6.61 28.14-6.30 28.14-5.87C28.14-5.43 27.99-5.09 27.70-4.86C27.41-4.63 26.92-4.51 26.24-4.51ZM26.45-0.79L25.08-0.79L25.08-3.77L26.45-3.77C27.14-3.77 27.68-3.65 28.04-3.43C28.41-3.20 28.60-2.84 28.60-2.35C28.60-1.82 28.41-1.42 28.03-1.17C27.66-0.92 27.13-0.79 26.45-0.79ZM31.14-7.87L31.14 0L35.58 0L35.58-0.85L32.14-0.85L32.14-7.87ZM36.59-7.87L36.59-3.25C36.59-2.62 36.66-2.09 36.80-1.66C36.95-1.22 37.15-0.87 37.40-0.61C37.65-0.34 37.95-0.15 38.30-0.03C38.65 0.09 39.02 0.14 39.42 0.14C39.82 0.14 40.19 0.09 40.54-0.03C40.88-0.15 41.18-0.34 41.43-0.61C41.68-0.87 41.88-1.22 42.02-1.66C42.17-2.09 42.24-2.62 42.24-3.25L42.24-7.87L41.28-7.87L41.28-3.23C41.28-2.76 41.23-2.36 41.14-2.04C41.04-1.72 40.91-1.46 40.74-1.27C40.57-1.08 40.38-0.94 40.15-0.86C39.93-0.77 39.68-0.73 39.42-0.73C39.16-0.73 38.92-0.77 38.70-0.86C38.48-0.94 38.28-1.08 38.12-1.27C37.95-1.46 37.82-1.72 37.73-2.04C37.63-2.36 37.58-2.76 37.58-3.23L37.58-7.87ZM44.36-7.87L44.36 0L49.02 0L49.02-0.85L45.36-0.85L45.36-3.71L48.35-3.71L48.35-4.56L45.36-4.56L45.36-7.03L48.90-7.03L48.90-7.87ZM50.71-1.72L50.11-1.02C50.46-0.66 50.86-0.38 51.34-0.17C51.81 0.04 52.32 0.14 52.87 0.14C53.29 0.14 53.66 0.09 53.99-0.03C54.32-0.15 54.60-0.31 54.83-0.51C55.06-0.71 55.24-0.95 55.36-1.22C55.49-1.50 55.55-1.79 55.55-2.10C55.55-2.39 55.51-2.64 55.42-2.86C55.34-3.08 55.22-3.27 55.08-3.44C54.94-3.60 54.76-3.75 54.56-3.87C54.36-3.99 54.15-4.10 53.93-4.20L52.81-4.68C52.65-4.74 52.50-4.81 52.34-4.89C52.19-4.97 52.05-5.05 51.92-5.15C51.80-5.25 51.69-5.37 51.62-5.50C51.54-5.63 51.50-5.80 51.50-5.99C51.50-6.35 51.64-6.63 51.91-6.83C52.17-7.04 52.53-7.14 52.97-7.14C53.34-7.14 53.67-7.07 53.96-6.94C54.25-6.81 54.52-6.63 54.76-6.40L55.30-7.04C55.02-7.33 54.68-7.57 54.28-7.75C53.88-7.93 53.44-8.02 52.97-8.02C52.61-8.02 52.28-7.96 51.98-7.86C51.68-7.76 51.42-7.61 51.20-7.42C50.98-7.23 50.81-7.01 50.68-6.76C50.56-6.50 50.50-6.22 50.50-5.93C50.50-5.64 50.54-5.39 50.64-5.17C50.74-4.95 50.86-4.76 51.01-4.60C51.16-4.44 51.34-4.30 51.53-4.19C51.72-4.08 51.91-3.98 52.09-3.90L53.22-3.41C53.40-3.32 53.58-3.24 53.74-3.16C53.90-3.08 54.03-2.99 54.15-2.89C54.27-2.79 54.36-2.67 54.43-2.53C54.49-2.39 54.53-2.22 54.53-2.02C54.53-1.63 54.38-1.32 54.10-1.09C53.81-0.85 53.40-0.73 52.88-0.73C52.48-0.73 52.08-0.82 51.70-1.00C51.32-1.18 50.99-1.42 50.71-1.72ZM57.10-7.87L57.10 0L58.09 0L58.09-2.50L59.45-4.09L61.80 0L62.92 0L60.07-4.87L62.53-7.87L61.40-7.87L58.13-3.92L58.09-3.92L58.09-7.87ZM65.12-3.05L65.12 0L66.13 0L66.13-3.05L68.50-7.87L67.45-7.87L66.44-5.65C66.32-5.36 66.20-5.08 66.06-4.80C65.92-4.52 65.79-4.23 65.65-3.94L65.60-3.94C65.47-4.23 65.34-4.52 65.22-4.80C65.10-5.08 64.98-5.36 64.85-5.65L63.83-7.87L62.76-7.87ZM73.62-7.03L73.62 0L74.63 0L74.63-7.03L77.00-7.03L77.00-7.87L71.24-7.87L71.24-7.03ZM81.04 0.14C81.53 0.14 81.99 0.05 82.40-0.14C82.81-0.34 83.17-0.61 83.47-0.97C83.77-1.32 84.00-1.75 84.16-2.26C84.33-2.77 84.41-3.34 84.41-3.97C84.41-4.60 84.33-5.16 84.16-5.66C84.00-6.16 83.77-6.58 83.47-6.93C83.17-7.28 82.81-7.55 82.40-7.73C81.99-7.92 81.53-8.02 81.04-8.02C80.54-8.02 80.09-7.92 79.67-7.74C79.26-7.56 78.91-7.29 78.61-6.94C78.32-6.59 78.09-6.17 77.92-5.67C77.76-5.17 77.68-4.60 77.68-3.97C77.68-3.34 77.76-2.77 77.92-2.26C78.09-1.75 78.32-1.32 78.61-0.97C78.91-0.61 79.26-0.34 79.67-0.14C80.09 0.05 80.54 0.14 81.04 0.14ZM81.04-0.73C80.68-0.73 80.37-0.81 80.08-0.96C79.80-1.11 79.55-1.33 79.35-1.61C79.15-1.90 78.99-2.24 78.88-2.63C78.76-3.03 78.71-3.48 78.71-3.97C78.71-4.46 78.76-4.90 78.88-5.29C78.99-5.68 79.15-6.02 79.35-6.29C79.55-6.56 79.80-6.77 80.08-6.92C80.37-7.07 80.68-7.14 81.04-7.14C81.39-7.14 81.71-7.07 81.99-6.92C82.27-6.77 82.52-6.56 82.72-6.29C82.93-6.02 83.08-5.68 83.20-5.29C83.31-4.90 83.36-4.46 83.36-3.97C83.36-3.48 83.31-3.03 83.20-2.63C83.08-2.24 82.93-1.90 82.72-1.61C82.52-1.33 82.27-1.11 81.99-0.96C81.71-0.81 81.39-0.73 81.04-0.73ZM89.00 0.14C89.50 0.14 89.95 0.05 90.37-0.14C90.78-0.34 91.13-0.61 91.43-0.97C91.73-1.32 91.97-1.75 92.13-2.26C92.29-2.77 92.38-3.34 92.38-3.97C92.38-4.60 92.29-5.16 92.13-5.66C91.97-6.16 91.73-6.58 91.43-6.93C91.13-7.28 90.78-7.55 90.37-7.73C89.95-7.92 89.50-8.02 89.00-8.02C88.51-8.02 88.05-7.92 87.64-7.74C87.23-7.56 86.88-7.29 86.58-6.94C86.28-6.59 86.05-6.17 85.89-5.67C85.73-5.17 85.64-4.60 85.64-3.97C85.64-3.34 85.73-2.77 85.89-2.26C86.05-1.75 86.28-1.32 86.58-0.97C86.88-0.61 87.23-0.34 87.64-0.14C88.05 0.05 88.51 0.14 89.00 0.14ZM89.00-0.73C88.65-0.73 88.33-0.81 88.05-0.96C87.77-1.11 87.52-1.33 87.32-1.61C87.11-1.90 86.96-2.24 86.84-2.63C86.73-3.03 86.68-3.48 86.68-3.97C86.68-4.46 86.73-4.90 86.84-5.29C86.96-5.68 87.11-6.02 87.32-6.29C87.52-6.56 87.77-6.77 88.05-6.92C88.33-7.07 88.65-7.14 89.00-7.14C89.36-7.14 89.67-7.07 89.96-6.92C90.24-6.77 90.49-6.56 90.69-6.29C90.89-6.02 91.05-5.68 91.16-5.29C91.28-4.90 91.33-4.46 91.33-3.97C91.33-3.48 91.28-3.03 91.16-2.63C91.05-2.24 90.89-1.90 90.69-1.61C90.49-1.33 90.24-1.11 89.96-0.96C89.67-0.81 89.36-0.73 89.00-0.73ZM94.07-7.87L94.07 0L98.51 0L98.51-0.85L95.06-0.85L95.06-7.87ZM99.66-1.72L99.06-1.02C99.40-0.66 99.81-0.38 100.28-0.17C100.76 0.04 101.27 0.14 101.82 0.14C102.24 0.14 102.61 0.09 102.94-0.03C103.26-0.15 103.54-0.31 103.78-0.51C104.01-0.71 104.19-0.95 104.31-1.22C104.43-1.50 104.50-1.79 104.50-2.10C104.50-2.39 104.45-2.64 104.37-2.86C104.29-3.08 104.17-3.27 104.03-3.44C103.88-3.60 103.71-3.75 103.51-3.87C103.31-3.99 103.10-4.10 102.88-4.20L101.76-4.68C101.60-4.74 101.44-4.81 101.29-4.89C101.14-4.97 101.00-5.05 100.87-5.15C100.74-5.25 100.64-5.37 100.57-5.50C100.49-5.63 100.45-5.80 100.45-5.99C100.45-6.35 100.59-6.63 100.85-6.83C101.12-7.04 101.48-7.14 101.92-7.14C102.28-7.14 102.61-7.07 102.91-6.94C103.20-6.81 103.46-6.63 103.70-6.40L104.24-7.04C103.96-7.33 103.62-7.57 103.22-7.75C102.82-7.93 102.39-8.02 101.92-8.02C101.56-8.02 101.23-7.96 100.93-7.86C100.63-7.76 100.37-7.61 100.15-7.42C99.93-7.23 99.75-7.01 99.63-6.76C99.51-6.50 99.44-6.22 99.44-5.93C99.44-5.64 99.49-5.39 99.59-5.17C99.68-4.95 99.81-4.76 99.96-4.60C100.11-4.44 100.28-4.30 100.48-4.19C100.67-4.08 100.86-3.98 101.04-3.90L102.17-3.41C102.35-3.32 102.52-3.24 102.68-3.16C102.84-3.08 102.98-2.99 103.10-2.89C103.21-2.79 103.31-2.67 103.37-2.53C103.44-2.39 103.48-2.22 103.48-2.02C103.48-1.63 103.33-1.32 103.04-1.09C102.76-0.85 102.35-0.73 101.83-0.73C101.42-0.73 101.03-0.82 100.65-1.00C100.27-1.18 99.94-1.42 99.66-1.72Z" transform="translate(-0.336, 8.016)"></path></g></g></g></g></g><defs v-gra="od"></defs></svg>